HIERARCHY
ROOT hip
{
  OFFSET 5.70873 43.8894 -1.52928
  CHANNELS 6 Xposition Yposition Zposition Zrotation Xrotation Yrotation
  JOINT abdomen
  {
    OFFSET 0 5.99393 0.287273
    CHANNELS 6 Xposition Yposition Zposition Zrotation Xrotation Yrotation
    JOINT chest
    {
      OFFSET 0 6.65865 -0.856112
      CHANNELS 6 Xposition Yposition Zposition Zrotation Xrotation Yrotation
      JOINT neck
      {
        OFFSET 0 8.65624 -1.42685
        CHANNELS 6 Xposition Yposition Zposition Zrotation Xrotation Yrotation
        JOINT head
        {
          OFFSET 0 3.80999 -0.190247
          CHANNELS 6 Xposition Yposition Zposition Zrotation Xrotation Yrotation
          End Site
          {
            OFFSET 0 0 0
          }
        }
      }
      JOINT rCollar
      {
        OFFSET -1.4963 7.5744 -1.52136
        CHANNELS 6 Xposition Yposition Zposition Zrotation Xrotation Yrotation
        JOINT rShldr
        {
          OFFSET -5.47506 -0.905672 0.485692
          CHANNELS 6 Xposition Yposition Zposition Zrotation Xrotation Yrotation
          JOINT rForeArm
          {
            OFFSET -11.3069 -0.201091 0.618544
            CHANNELS 6 Xposition Yposition Zposition Zrotation Xrotation Yrotation
            JOINT rHand
            {
              OFFSET -9.61414 -0.254739 3.48553
              CHANNELS 6 Xposition Yposition Zposition Zrotation Xrotation Yrotation
              JOINT rThumb1
              {
                OFFSET 0.176263 -0.07068 1.26622
                CHANNELS 6 Xposition Yposition Zposition Zrotation Xrotation Yrotation
                JOINT rThumb2
                {
                  OFFSET -1.04683 -0.546484 1.82182
                  CHANNELS 6 Xposition Yposition Zposition Zrotation Xrotation Yrotation
                  JOINT rThumb3
                  {
                    OFFSET -0.993472 -0.621916 0.655506
                    CHANNELS 6 Xposition Yposition Zposition Zrotation Xrotation Yrotation
                    End Site
                    {
                      OFFSET -0.996134 -0.66263 0.644615
                    }
                  }
                }
              }
              JOINT rIndex1
              {
                OFFSET -2.64253 0.566363 2.4162
                CHANNELS 6 Xposition Yposition Zposition Zrotation Xrotation Yrotation
                JOINT rIndex2
                {
                  OFFSET -1.39394 -0.635138 0.899356
                  CHANNELS 6 Xposition Yposition Zposition Zrotation Xrotation Yrotation
                  JOINT rIndex3
                  {
                    OFFSET -0.622395 -0.856016 0.402182
                    CHANNELS 6 Xposition Yposition Zposition Zrotation Xrotation Yrotation
                    End Site
                    {
                      OFFSET -0.472476 -0.801802 0.34216
                    }
                  }
                }
              }
              JOINT rMid1
              {
                OFFSET -3.20814 0.514427 1.52547
                CHANNELS 6 Xposition Yposition Zposition Zrotation Xrotation Yrotation
                JOINT rMid2
                {
                  OFFSET -1.56545 -0.497974 0.68919
                  CHANNELS 6 Xposition Yposition Zposition Zrotation Xrotation Yrotation
                  JOINT rMid3
                  {
                    OFFSET -0.679943 -1.17582 0.444246
                    CHANNELS 6 Xposition Yposition Zposition Zrotation Xrotation Yrotation
                    End Site
                    {
                      OFFSET -0.343874 -0.941341 0.267611
                    }
                  }
                }
              }
              JOINT rRing1
              {
                OFFSET -3.47877 0.200518 0.597719
                CHANNELS 6 Xposition Yposition Zposition Zrotation Xrotation Yrotation
                JOINT rRing2
                {
                  OFFSET -1.28208 -0.53155 0.44672
                  CHANNELS 6 Xposition Yposition Zposition Zrotation Xrotation Yrotation
                  JOINT rRing3
                  {
                    OFFSET -0.710288 -0.970167 0.4032
                    CHANNELS 6 Xposition Yposition Zposition Zrotation Xrotation Yrotation
                    End Site
                    {
                      OFFSET -0.403228 -0.950952 0.378354
                    }
                  }
                }
              }
              JOINT rPinky1
              {
                OFFSET -3.42483 -0.278904 -0.240415
                CHANNELS 6 Xposition Yposition Zposition Zrotation Xrotation Yrotation
                JOINT rPinky2
                {
                  OFFSET -1.05787 -0.635999 0.156459
                  CHANNELS 6 Xposition Yposition Zposition Zrotation Xrotation Yrotation
                  JOINT rPinky3
                  {
                    OFFSET -0.42815 -0.754232 0.287187
                    CHANNELS 6 Xposition Yposition Zposition Zrotation Xrotation Yrotation
                    End Site
                    {
                      OFFSET -0.235717 -0.725605 0.279416
                    }
                  }
                }
              }
            }
          }
        }
      }
      JOINT lCollar
      {
        OFFSET 1.4963 7.5744 -1.52136
        CHANNELS 6 Xposition Yposition Zposition Zrotation Xrotation Yrotation
        JOINT lShldr
        {
          OFFSET 5.47506 -0.905672 0.485692
          CHANNELS 6 Xposition Yposition Zposition Zrotation Xrotation Yrotation
          JOINT lForeArm
          {
            OFFSET 11.3069 -0.201091 0.618544
            CHANNELS 6 Xposition Yposition Zposition Zrotation Xrotation Yrotation
            JOINT lHand
            {
              OFFSET 9.61414 -0.254739 3.48553
              CHANNELS 6 Xposition Yposition Zposition Zrotation Xrotation Yrotation
              JOINT lThumb1
              {
                OFFSET -0.176263 -0.07068 1.26622
                CHANNELS 6 Xposition Yposition Zposition Zrotation Xrotation Yrotation
                JOINT lThumb2
                {
                  OFFSET 1.04683 -0.546484 1.82182
                  CHANNELS 6 Xposition Yposition Zposition Zrotation Xrotation Yrotation
                  JOINT lThumb3
                  {
                    OFFSET 0.993472 -0.621916 0.655506
                    CHANNELS 6 Xposition Yposition Zposition Zrotation Xrotation Yrotation
                    End Site
                    {
                      OFFSET 0.996134 -0.66263 0.644615
                    }
                  }
                }
              }
              JOINT lIndex1
              {
                OFFSET 2.64253 0.566363 2.4162
                CHANNELS 6 Xposition Yposition Zposition Zrotation Xrotation Yrotation
                JOINT lIndex2
                {
                  OFFSET 1.39394 -0.635138 0.899356
                  CHANNELS 6 Xposition Yposition Zposition Zrotation Xrotation Yrotation
                  JOINT lIndex3
                  {
                    OFFSET 0.622395 -0.856016 0.402182
                    CHANNELS 6 Xposition Yposition Zposition Zrotation Xrotation Yrotation
                    End Site
                    {
                      OFFSET 0.472476 -0.801802 0.34216
                    }
                  }
                }
              }
              JOINT lMid1
              {
                OFFSET 3.20814 0.514427 1.52547
                CHANNELS 6 Xposition Yposition Zposition Zrotation Xrotation Yrotation
                JOINT lMid2
                {
                  OFFSET 1.56545 -0.497974 0.68919
                  CHANNELS 6 Xposition Yposition Zposition Zrotation Xrotation Yrotation
                  JOINT lMid3
                  {
                    OFFSET 0.679943 -1.17582 0.444246
                    CHANNELS 6 Xposition Yposition Zposition Zrotation Xrotation Yrotation
                    End Site
                    {
                      OFFSET 0.343874 -0.941341 0.267611
                    }
                  }
                }
              }
              JOINT lRing1
              {
                OFFSET 3.47877 0.200518 0.597719
                CHANNELS 6 Xposition Yposition Zposition Zrotation Xrotation Yrotation
                JOINT lRing2
                {
                  OFFSET 1.28208 -0.53155 0.44672
                  CHANNELS 6 Xposition Yposition Zposition Zrotation Xrotation Yrotation
                  JOINT lRing3
                  {
                    OFFSET 0.710288 -0.970167 0.4032
                    CHANNELS 6 Xposition Yposition Zposition Zrotation Xrotation Yrotation
                    End Site
                    {
                      OFFSET 0.403228 -0.950952 0.378354
                    }
                  }
                }
              }
              JOINT lPinky1
              {
                OFFSET 3.42483 -0.278904 -0.240415
                CHANNELS 6 Xposition Yposition Zposition Zrotation Xrotation Yrotation
                JOINT lPinky2
                {
                  OFFSET 1.05787 -0.635999 0.156459
                  CHANNELS 6 Xposition Yposition Zposition Zrotation Xrotation Yrotation
                  JOINT lPinky3
                  {
                    OFFSET 0.42815 -0.754232 0.287187
                    CHANNELS 6 Xposition Yposition Zposition Zrotation Xrotation Yrotation
                    End Site
                    {
                      OFFSET 0.235717 -0.725605 0.279416
                    }
                  }
                }
              }
            }
          }
        }
      }
    }
  }
  JOINT rThigh
  {
    OFFSET -4.17848 -1.02486 0.046356
    CHANNELS 6 Xposition Yposition Zposition Zrotation Xrotation Yrotation
    JOINT rShin
    {
      OFFSET 1.27155 -17.465 -0.237699
      CHANNELS 6 Xposition Yposition Zposition Zrotation Xrotation Yrotation
      JOINT rFoot
      {
        OFFSET 0.529163 -17.3815 -1.19582
        CHANNELS 6 Xposition Yposition Zposition Zrotation Xrotation Yrotation
        JOINT rToe
        {
          OFFSET -0.711591 -4.4863 4.0596
          CHANNELS 6 Xposition Yposition Zposition Zrotation Xrotation Yrotation
          End Site
          {
            OFFSET -0.869915 -1.10655 1.99006
          }
        }
      }
    }
  }
  JOINT lThigh
  {
    OFFSET 4.17848 -1.02486 0.046356
    CHANNELS 6 Xposition Yposition Zposition Zrotation Xrotation Yrotation
    JOINT lShin
    {
      OFFSET -1.27155 -17.465 -0.237699
      CHANNELS 6 Xposition Yposition Zposition Zrotation Xrotation Yrotation
      JOINT lFoot
      {
        OFFSET -0.529163 -17.3815 -1.19582
        CHANNELS 6 Xposition Yposition Zposition Zrotation Xrotation Yrotation
        JOINT lToe
        {
          OFFSET 0.711591 -4.4863 4.0596
          CHANNELS 6 Xposition Yposition Zposition Zrotation Xrotation Yrotation
          End Site
          {
            OFFSET 0.869915 -1.10655 1.99006
          }
        }
      }
    }
  }
}
MOTION
Frames:	4
Frame Time:	0.0333333
15.1301 20.2651 34.815 86.6391 -79.9801 -88.3787 -1.77636e-015 5.99393 0.287273 -6.46262 -4.44064 -2.14799 -8.88178e-016 6.65865 -0.856112 -13.1442 -8.60666 -4.80561 8.88178e-016 8.65624 -1.42685 -7.64651 -17.6914 10.7892 -1.77636e-015 3.80999 -0.190247 4.52223 -33.5079 6.89087 -1.4963 7.5744 -1.52136 -23.5535 -0.312485 16.806 -5.47506 -0.905672 0.485692 51.0925 -27.347 25.6672 -11.3069 -0.201091 0.618544 23.9768 -2.23977 71.8561 -9.61414 -0.254739 3.48553 -73.8591 7.24823 3.58443 0.176263 -0.07068 1.26622 -4.40861 5.88809 -15.8556 -1.04683 -0.546484 1.82182 -0.644395 -2.87425 4.50665 -0.993472 -0.621916 0.655506 -3.27879 0.152971 -2.19289 -2.64253 0.566363 2.4162 1.57767 6.35208 -5.74528 -1.39394 -0.635138 0.899356 7.54871 1.92667 -1.23663 -0.622395 -0.856016 0.402182 5.60305 1.44723 -0.894666 -3.20814 0.514427 1.52547 -3.114 2.2965 0.437577 -1.56545 -0.497974 0.68919 -1.61914 -0.500841 0.223341 -0.679943 -1.17582 0.444246 -2.96844 -0.923309 0.398971 -3.47877 0.200518 0.597719 -10.2376 -4.37587 1.7079 -1.28208 -0.53155 0.44672 -9.00478 -3.24602 1.39886 -0.710288 -0.970167 0.4032 -9.7848 -3.53775 1.49642 -3.42483 -0.278904 -0.240415 -12.2923 -6.81442 2.47848 -1.05787 -0.635999 0.156459 -14.0799 -5.5451 1.71659 -0.42815 -0.754232 0.287187 -12.413 -4.86731 1.58423 1.4963 7.5744 -1.52136 28.5629 1.00069 10.2941 5.47506 -0.905672 0.485692 -42.8563 -20.6609 -84.8134 11.3069 -0.201091 0.618544 -33.3297 -26.6301 -36.2982 9.61414 -0.254739 3.48553 48.5606 -6.58193 -20.6245 -0.176263 -0.07068 1.26622 -10.4715 9.61933 -6.00952 1.04683 -0.546484 1.82182 -7.49146 -1.31936 -13.1285 0.993472 -0.621916 0.655506 -6.00201 -1.19682 -10.543 2.64253 0.566363 2.4162 7.47381 0.419194 -3.84054 1.39394 -0.635138 0.899356 7.6177 -2.77072 -2.89319 0.622395 -0.856016 0.402182 2.09986 -0.720401 -0.828632 3.20814 0.514427 1.52547 10.1207 -0.656708 -3.40012 1.56545 -0.497974 0.68919 5.03614 -2.01608 -1.95336 0.679943 -1.17582 0.444246 13.8739 -6.00462 -4.98332 3.47877 0.200518 0.597719 13.2995 -4.4733 -2.13859 1.28208 -0.53155 0.44672 6.31099 -2.83208 -2.75846 0.710288 -0.970167 0.4032 14.4211 -6.97427 -5.89424 3.42483 -0.278904 -0.240415 11.9484 -4.69103 2.73734 1.05787 -0.635999 0.156459 14.7675 -7.65414 -5.80871 0.42815 -0.754232 0.287187 15.7443 -8.22091 -6.12955 -4.17848 -1.02486 0.046356 -19.3556 -72.8876 -13.6384 1.27155 -17.465 -0.237699 46.9731 71.2665 -36.2026 0.529163 -17.3815 -1.19582 10.5991 22.2242 12.3879 -0.711591 -4.4863 4.0596 0.672576 4.86602 -0.159424 4.17848 -1.02486 0.046356 52.9028 -82.7129 48.3467 -1.27155 -17.465 -0.237699 151.656 81.1419 -154.347 -0.529163 -17.3815 -1.19582 -7.54721 31.3147 -11.9088 0.711591 -4.4863 4.0596 0.125457 -0.551652 0.0687141 
15.5208 20.2318 35.022 91.078 -79.8289 -84.1999 1.77636e-015 5.99393 0.287273 -6.59518 -4.65241 -2.20075 -1.77636e-015 6.65865 -0.856112 -13.4282 -9.01589 -4.94791 8.88178e-016 8.65624 -1.42685 -7.34198 -17.2079 10.307 0 3.80999 -0.190247 5.05765 -34.355 6.88812 -1.4963 7.5744 -1.52136 -23.8909 -0.316046 15.8831 -5.47506 -0.905672 0.485692 51.0392 -27.2467 27.0595 -11.3069 -0.201091 0.618544 23.6865 -2.80748 71.6893 -9.61414 -0.254739 3.48553 -73.2793 7.53902 2.02452 0.176263 -0.07068 1.26622 -4.40855 5.88788 -15.8556 -1.04683 -0.546484 1.82182 -0.644395 -2.87424 4.50666 -0.993472 -0.621916 0.655506 -3.2788 0.153 -2.19289 -2.64253 0.566363 2.4162 1.57768 6.35212 -5.74528 -1.39394 -0.635138 0.899356 7.54871 1.92672 -1.23663 -0.622395 -0.856016 0.402182 5.60316 1.44727 -0.894698 -3.20814 0.514427 1.52547 -3.11399 2.29651 0.437561 -1.56545 -0.497974 0.68919 -1.61914 -0.500825 0.223347 -0.679943 -1.17582 0.444246 -2.96841 -0.923396 0.398888 -3.47877 0.200518 0.597719 -10.2375 -4.37586 1.70789 -1.28208 -0.53155 0.44672 -9.00479 -3.24599 1.39886 -0.710288 -0.970167 0.4032 -9.78479 -3.53772 1.49649 -3.42483 -0.278904 -0.240415 -12.2923 -6.8144 2.47849 -1.05787 -0.635999 0.156459 -14.0799 -5.54508 1.71663 -0.42815 -0.754232 0.287187 -12.4129 -4.86728 1.58416 1.4963 7.5744 -1.52136 28.431 1.06903 10.8984 5.47506 -0.905672 0.485692 -42.8031 -21.3391 -86.685 11.3069 -0.201091 0.618544 -32.0947 -28.5236 -34.4576 9.61414 -0.254739 3.48553 46.5586 -6.03428 -21.0583 -0.176263 -0.07068 1.26622 -10.4998 9.65395 -6.08005 1.04683 -0.546484 1.82182 -7.53786 -1.32211 -13.2089 0.993472 -0.621916 0.655506 -6.08216 -1.20514 -10.6823 2.64253 0.566363 2.4162 7.50337 0.372349 -3.94802 1.39394 -0.635138 0.899356 7.60933 -2.76745 -2.8902 0.622395 -0.856016 0.402182 2.09063 -0.717164 -0.825023 3.20814 0.514427 1.52547 10.191 -0.68754 -3.42687 1.56545 -0.497974 0.68919 5.04663 -2.02051 -1.95725 0.679943 -1.17582 0.444246 13.9249 -6.02918 -4.9992 3.47877 0.200518 0.597719 13.3734 -4.4795 -2.11975 1.28208 -0.53155 0.44672 6.30784 -2.83058 -2.75715 0.710288 -0.970167 0.4032 14.5137 -7.0245 -5.92702 3.42483 -0.278904 -0.240415 11.9598 -4.65543 2.85411 1.05787 -0.635999 0.156459 14.7795 -7.66106 -5.8127 0.42815 -0.754232 0.287187 15.7892 -8.24715 -6.14412 -4.17848 -1.02486 0.046356 -17.8904 -74.5657 -12.4424 1.27155 -17.465 -0.237699 49.8712 71.9063 -38.9501 0.529163 -17.3815 -1.19582 10.3619 22.1355 12.739 -0.711591 -4.4863 4.0596 0.666184 4.82041 -0.157678 4.17848 -1.02486 0.046356 73.7674 -83.1028 68.7112 -1.27155 -17.465 -0.237699 157.933 78.2724 -160.687 -0.529163 -17.3815 -1.19582 -7.4354 32.017 -12.2267 0.711591 -4.4863 4.0596 0.125037 -0.644624 0.06529 
15.8624 20.2062 35.198 96.4856 -79.5493 -78.9358 0 5.99393 0.287273 -6.68725 -4.83556 -2.36481 -1.77636e-015 6.65865 -0.856112 -13.6385 -9.35662 -5.30737 -8.88178e-016 8.65624 -1.42685 -7.14293 -17.363 9.84598 8.88178e-016 3.80999 -0.190247 5.77526 -34.9983 7.01337 -1.4963 7.5744 -1.52136 -24.2636 -0.325091 14.9081 -5.47506 -0.905672 0.485692 51.0598 -27.1077 28.6247 -11.3069 -0.201091 0.618544 23.3458 -3.45785 71.5058 -9.61414 -0.254739 3.48553 -72.6701 7.68979 0.580251 0.176263 -0.07068 1.26622 -4.40855 5.88788 -15.8556 -1.04683 -0.546484 1.82182 -0.644411 -2.87424 4.50664 -0.993472 -0.621916 0.655506 -3.27883 0.153053 -2.19284 -2.64253 0.566363 2.4162 1.57764 6.35222 -5.74526 -1.39394 -0.635138 0.899356 7.54869 1.9268 -1.23661 -0.622395 -0.856016 0.402182 5.60328 1.44729 -0.89472 -3.20814 0.514427 1.52547 -3.11399 2.2965 0.437579 -1.56545 -0.497974 0.68919 -1.61915 -0.500787 0.22336 -0.679943 -1.17582 0.444246 -2.96841 -0.923389 0.398875 -3.47877 0.200518 0.597719 -10.2375 -4.37588 1.7079 -1.28208 -0.53155 0.44672 -9.0048 -3.24594 1.3989 -0.710288 -0.970167 0.4032 -9.78464 -3.5377 1.49641 -3.42483 -0.278904 -0.240415 -12.2923 -6.81439 2.47849 -1.05787 -0.635999 0.156459 -14.0799 -5.54504 1.7167 -0.42815 -0.754232 0.287187 -12.4128 -4.86723 1.58422 1.4963 7.5744 -1.52136 28.0287 1.16841 11.8528 5.47506 -0.905672 0.485692 -42.6963 -22.1347 -88.8095 11.3069 -0.201091 0.618544 -30.449 -30.0116 -32.2589 9.61414 -0.254739 3.48553 44.5924 -5.92973 -21.1647 -0.176263 -0.07068 1.26622 -10.5259 9.68741 -6.14734 1.04683 -0.546484 1.82182 -7.58081 -1.32458 -13.2834 0.993472 -0.621916 0.655506 -6.16233 -1.21326 -10.8217 2.64253 0.566363 2.4162 7.53984 0.324148 -4.05756 1.39394 -0.635138 0.899356 7.60097 -2.76417 -2.8872 0.622395 -0.856016 0.402182 2.0838 -0.714762 -0.822356 3.20814 0.514427 1.52547 10.265 -0.720519 -3.45514 1.56545 -0.497974 0.68919 5.05713 -2.02494 -1.96119 0.679943 -1.17582 0.444246 13.9759 -6.05375 -5.01504 3.47877 0.200518 0.597719 13.4472 -4.48571 -2.1009 1.28208 -0.53155 0.44672 6.3047 -2.82908 -2.75585 0.710288 -0.970167 0.4032 14.6075 -7.07555 -5.96022 3.42483 -0.278904 -0.240415 11.9734 -4.62303 2.96794 1.05787 -0.635999 0.156459 14.7915 -7.66799 -5.81672 0.42815 -0.754232 0.287187 15.8342 -8.27342 -6.15868 -4.17848 -1.02486 0.046356 -17.4762 -76.5406 -12.2243 1.27155 -17.465 -0.237699 53.5782 72.6004 -42.5234 0.529163 -17.3815 -1.19582 10.3056 21.7411 12.6318 -0.711591 -4.4863 4.0596 0.71088 5.13918 -0.170116 4.17848 -1.02486 0.046356 95.6053 -82.8966 89.951 -1.27155 -17.465 -0.237699 161.506 75.4998 -164.328 -0.529163 -17.3815 -1.19582 -7.58822 32.7922 -12.3332 0.711591 -4.4863 4.0596 0.0959641 -0.494752 0.0499337 
16.1573 20.1761 35.3374 101.516 -79.2376 -74.1494 0 5.99393 0.287273 -6.78158 -5.06214 -2.42297 0 6.65865 -0.856112 -13.8493 -9.79586 -5.46161 -8.88178e-016 8.65624 -1.42685 -6.97232 -17.5718 9.36683 0 3.80999 -0.190247 6.34825 -35.6614 7.21307 -1.4963 7.5744 -1.52136 -24.6572 -0.335933 13.9131 -5.47506 -0.905672 0.485692 51.1851 -26.8663 29.7768 -11.3069 -0.201091 0.618544 22.9891 -4.03871 71.4853 -9.61414 -0.254739 3.48553 -72.0338 7.87942 -0.697959 0.176263 -0.07068 1.26622 -4.40855 5.88788 -15.8556 -1.04683 -0.546484 1.82182 -0.644416 -2.87422 4.50667 -0.993472 -0.621916 0.655506 -3.27878 0.152965 -2.19292 -2.64253 0.566363 2.4162 1.57771 6.35205 -5.74527 -1.39394 -0.635138 0.899356 7.54877 1.92664 -1.23664 -0.622395 -0.856016 0.402182 5.6034 1.44732 -0.894751 -3.20814 0.514427 1.52547 -3.11398 2.29651 0.437563 -1.56545 -0.497974 0.68919 -1.61916 -0.500708 0.223429 -0.679943 -1.17582 0.444246 -2.96841 -0.923394 0.398869 -3.47877 0.200518 0.597719 -10.2375 -4.37587 1.70788 -1.28208 -0.53155 0.44672 -9.00477 -3.24603 1.39881 -0.710288 -0.970167 0.4032 -9.78464 -3.53765 1.49648 -3.42483 -0.278904 -0.240415 -12.2923 -6.81436 2.4785 -1.05787 -0.635999 0.156459 -14.0799 -5.54513 1.71657 -0.42815 -0.754232 0.287187 -12.4127 -4.86721 1.58413 1.4963 7.5744 -1.52136 27.907 1.2589 12.6697 5.47506 -0.905672 0.485692 -42.6803 -22.5447 -90.7325 11.3069 -0.201091 0.618544 -28.5794 -31.3407 -30.1942 9.61414 -0.254739 3.48553 42.721 -5.95773 -21.1314 -0.176263 -0.07068 1.26622 -10.552 9.72087 -6.21461 1.04683 -0.546484 1.82182 -7.62378 -1.327 -13.3579 0.993472 -0.621916 0.655506 -6.24019 -1.22096 -10.957 2.64253 0.566363 2.4162 7.58397 0.274457 -4.16945 1.39394 -0.635138 0.899356 7.5926 -2.7609 -2.88421 0.622395 -0.856016 0.402182 2.07695 -0.712366 -0.819704 3.20814 0.514427 1.52547 10.339 -0.753514 -3.48339 1.56545 -0.497974 0.68919 5.07103 -2.03078 -1.96637 0.679943 -1.17582 0.444246 14.0334 -6.08139 -5.03283 3.47877 0.200518 0.597719 13.5224 -4.49453 -2.08494 1.28208 -0.53155 0.44672 6.303 -2.82826 -2.75514 0.710288 -0.970167 0.4032 14.7014 -7.12665 -5.99332 3.42483 -0.278904 -0.240415 11.9869 -4.59061 3.08176 1.05787 -0.635999 0.156459 14.8074 -7.67711 -5.82199 0.42815 -0.754232 0.287187 15.8792 -8.29971 -6.17321 -4.17848 -1.02486 0.046356 -15.6069 -78.2352 -10.2798 1.27155 -17.465 -0.237699 55.0125 72.8902 -43.8502 0.529163 -17.3815 -1.19582 10.8942 22.0611 12.2088 -0.711591 -4.4863 4.0596 0.68844 4.97918 -0.16383 4.17848 -1.02486 0.046356 111.553 -81.6683 105.526 -1.27155 -17.465 -0.237699 163.583 73.1064 -166.437 -0.529163 -17.3815 -1.19582 -7.99765 33.7051 -12.148 0.711591 -4.4863 4.0596 0.0854454 -0.484538 0.0428631 
